<svg xmlns="http://www.w3.org/2000/svg" viewBox="0 0 1862.39 350.51"><path fill="#f7791f" d="M131.3,128.43h153.71c-1,3.61-1.89,7.28-2.66,10.98h343c-3.06-14.77-8.01-28.84-14.53-41.99h-313.94c-.94,1.88-1.83,3.79-2.7,5.71h-153.58c-.95,2.06-1.85,4.14-2.72,6.24H12.49c-1.26,3.15-2.43,6.36-3.51,9.6h125.32c-1.07,3.12-2.09,6.26-2.99,9.45Z"></path><path fill="#f7791f" d="M160.22,70.43h153.31c-2.6,3.49-5.1,7.06-7.44,10.74h295.55c-10.15-15.93-22.79-30.12-37.4-41.99h-220.76c-2.35,1.91-4.63,3.9-6.88,5.93H56.78c-3.33,3.06-6.52,6.28-9.61,9.6h126.61c-4.81,4.97-9.37,10.19-13.57,15.72Z"></path><path fill="#f7791f" d="M233.78,14.25h150.92c-5.99,2.58-11.82,5.47-17.44,8.67h173.19c-25.55-14.56-55.08-22.92-86.59-22.92-.88,0-1.74.03-2.61.04v-.04H171.74c-18.9,0-37.07,3.16-54.08,8.93h131.42c-5.2,1.54-10.3,3.32-15.29,5.32Z"></path><path fill="#f7791f" d="M372.73,330.4c4.07,2.13,8.26,4.05,12.51,5.86h-155.53c3.8,1.64,7.7,3.1,11.64,4.47H109.73c11.04,4.37,22.63,7.63,34.64,9.6h316.99v-.23c26.49-1.12,51.46-8.09,73.64-19.7h-162.26Z"></path><path fill="#f7791f" d="M310.89,276.29h-154.63c3.83,5.47,8,10.67,12.42,15.65H41.9c2.81,3.3,5.71,6.52,8.74,9.6h127.15s.03.03.04.04h154.87c4.63,4.44,9.49,8.65,14.58,12.56h213.14c15.28-11.74,28.58-25.92,39.29-41.99h-291.71c.93,1.4,1.91,2.76,2.88,4.13Z"></path><path fill="#f7791f" d="M284.9,221.24h-154.02v.99c.57,2.09,1.18,4.16,1.82,6.22H7.29c.98,3.24,2.07,6.44,3.22,9.6h125.54c1.08,2.86,2.21,5.7,3.44,8.48h154.43c1.42,3.17,2.92,6.3,4.51,9.37h310.87c6.83-13.11,12.03-27.19,15.37-41.99h-341.62c.56,2.47,1.19,4.9,1.84,7.33Z"></path><path fill="#f7791f" d="M627.92,155.67h-250.95v-.11h-33.11v.11h-64.05c-.2,1.77-.31,3.56-.45,5.33H125.36c-.21,2.37-.36,4.76-.48,7.16H.85c-.36,3.17-.65,6.37-.85,9.6h124.71c.03,2.86.13,5.71.29,8.53h154.07c.25,3.82.63,7.61,1.11,11.36h347.36c.95-7.37,1.49-14.86,1.49-22.49,0-6.59-.4-13.09-1.11-19.5Z"></path><path fill="#fff" d="M1032.68,155.58h-160.75v42.32h160.75v15.97h-35.07c-6.36,24.79-18.85,46.25-36.78,62.82-22.8,21.07-52.15,32.2-84.87,32.2-36,0-69.21-13.68-93.52-38.52-24.24-24.76-37.58-58.47-37.58-94.92s13.35-70.16,37.58-94.92c24.31-24.84,57.52-38.51,93.52-38.51,50.57,0,95.41,26.51,114.24,67.55l1.08,2.35h47.35l-1.79-5.32C1019.63,55.45,961.95.4,875.96.4c-98.16,0-175.05,76.89-175.05,175.06s76.89,175.05,175.05,175.05c48.19,0,92.16-18.66,123.8-52.54,33.62-35.99,50.14-86.52,46.65-142.39h-13.74Z"></path><path fill="#fff" d="M1321.33,230.24c-2.62,5.55-5.14,11.19-7.59,16.89-2.45,5.72-4.98,11.35-7.59,16.89-2.94,7.19-5.72,14.2-8.32,21.06-2.62,6.86-5.23,13.88-7.84,21.06-2.62-5.88-5.06-11.75-7.35-17.63-2.29-5.87-4.74-11.75-7.34-17.63-2.94-7.18-5.96-14.2-9.06-21.06-3.11-6.86-6.29-13.71-9.55-20.57L1148.95,4h-67.58v345.73h46.03v-215.96c-.33-8.48-.49-17.14-.49-25.95,0-2.68-.04-5.36-.08-8.05h.03v-51.35h.19v-3.01h15.83v47.6c1.2,2.58,2.38,5.18,3.62,7.71,3.92,8,7.84,16.08,11.75,24.24l108.23,224.77h45.05l118.02-243.87c2.27-4.27,4.32-8.53,6.23-12.8v-47.65h15.83v50.87h0v3.48h.05c-.12,4.35-.22,8.99-.31,13.92-.17,9.79-.25,22.04-.25,36.73v199.31h46.52V4h-66.6l-109.69,226.24Z"></path><polygon fill="#fff" points="1531.85 4 1531.85 45.13 1672.88 45.13 1672.88 349.73 1720.87 349.73 1720.87 61.03 1689.89 61.03 1689.89 56.93 1689.83 56.93 1689.83 45.15 1720.87 45.15 1720.87 45.13 1862.39 45.13 1862.39 4 1531.85 4"></polygon></svg>
